<?xml version="1.0" encoding="UTF-8"?> <svg xmlns="http://www.w3.org/2000/svg" width="21" height="23" viewBox="0 0 21 23"><g fill="#1970e2" fill-rule="nonzero"><path d="M12.933 2.982a2.379 2.379 0 0 0-2.37-2.388 2.379 2.379 0 0 0-2.37 2.388 2.379 2.379 0 0 0 2.37 2.388 2.379 2.379 0 0 0 2.37-2.388zM15.07 9.18a4.835 4.835 0 0 0-4.507-3.108A4.835 4.835 0 0 0 6.056 9.18h9.014zM17.43 16.822v1.537a2.385 2.385 0 0 0-1.528 2.651 2.37 2.37 0 0 0 2.33 1.972 2.37 2.37 0 0 0 2.33-1.972 2.385 2.385 0 0 0-1.528-2.65v-1.538a2.687 2.687 0 0 0-2.677-2.696h-4.99v-2.731c0-.447-.36-.81-.803-.81a.806.806 0 0 0-.803.81v2.73H4.769a2.687 2.687 0 0 0-2.677 2.697v1.537a2.385 2.385 0 0 0-1.526 2.652 2.37 2.37 0 0 0 2.33 1.971 2.37 2.37 0 0 0 2.329-1.971 2.385 2.385 0 0 0-1.526-2.652v-1.537c0-.595.479-1.078 1.07-1.078h4.992v2.615a2.385 2.385 0 0 0-1.527 2.652 2.37 2.37 0 0 0 2.33 1.971 2.37 2.37 0 0 0 2.33-1.971 2.385 2.385 0 0 0-1.527-2.652v-2.615h4.99c.285 0 .557.113.758.315.201.203.314.477.314.763z"></path></g></svg> 