<?xml version="1.0" encoding="UTF-8"?> <svg xmlns="http://www.w3.org/2000/svg" width="23" height="21" viewBox="0 0 23 21"><g fill="#1970e2" fill-rule="nonzero"><path d="M13.222 13.571V8H7.556v1.857H2.833C1.271 9.857 0 11.107 0 12.643v3.714c0 1.536 1.271 2.786 2.833 2.786h8.5V21L17 18.214l-5.667-2.785v1.857h-8.5a.938.938 0 0 1-.944-.929v-3.714c0-.512.424-.929.944-.929h4.723v1.857h5.666zM9.444 9.857h1.89v1.857h-1.89V9.857zM23 21v-6h-6v6z"></path><path d="M19.167 11.143h.958c1.585 0 2.875-1.25 2.875-2.786V4.643c0-1.536-1.29-2.786-2.875-2.786H5.75V0H0v5.571h5.75V3.714h14.375c.529 0 .958.417.958.929v3.714c0 .512-.429.929-.958.929h-.958V7.429l-5.75 2.785L19.167 13v-1.857zM3.833 3.714H1.917V1.857h1.916v1.857z"></path></g></svg> 