<?xml version="1.0" encoding="UTF-8"?> <svg xmlns="http://www.w3.org/2000/svg" width="19" height="25" viewBox="0 0 19 25"><path fill="#1970e2" fill-rule="nonzero" d="M18.829 17.97L13.013 7.293c-.217-.42-.65-.684-1.136-.736l-4.301-.395c-.027-.973-.325-2.025-.866-3.024C6.115 2.033 5.276 1.139 4.384.587 3.329-.07 2.274-.176 1.408.271.543.718.056 1.64.002 2.85-.025 3.9.272 5.058.867 6.162c.568 1.026 1.299 1.84 2.083 2.393L.867 12.237c-.243.42-.243.92 0 1.341L6.71 24.255a1.456 1.456 0 0 0 1.948.578l9.575-4.97c.704-.368.974-1.21.596-1.893zM2.409 5.347c-.46-.815-.703-1.71-.676-2.446.027-.552.19-.973.46-1.104a.557.557 0 0 1 .297-.08c.244 0 .568.106.92.316.65.395 1.271 1.079 1.731 1.92.379.684.595 1.394.65 2.051l-.38-.026a1.457 1.457 0 0 0-1.406.736l-.19.342a5.53 5.53 0 0 1-1.406-1.71zm10.333 14.2c.054.106.027.237-.08.29l-.948.473c-.108.053-.243.026-.297-.079l-.514-.92c-1.001.447-2.164.105-2.76-.763-.08-.105-.026-.236.082-.29l.947-.499a.18.18 0 0 1 .243.053.757.757 0 0 0 .92.184l.838-.42c.487-.264.758-.842.541-1.342a1.077 1.077 0 0 0-1.487-.526l-.623.316c-1.163.604-2.677.315-3.408-.763-.784-1.13-.46-2.63.622-3.392l-.46-.947c-.054-.105-.027-.237.082-.29l.946-.473c.109-.052.244-.026.298.08l.514.92c1-.447 2.164-.106 2.759.762.054.105.027.237-.081.29l-.947.5a.18.18 0 0 1-.243-.053.757.757 0 0 0-.92-.185l-.839.421c-.487.263-.757.815-.54 1.341.243.579.946.816 1.487.526l.703-.368c1.326-.684 2.976-.131 3.571 1.262.46 1.052.027 2.262-.893 2.946l.487.946z"></path></svg> 