<?xml version="1.0" encoding="UTF-8" standalone="no"?>
<!DOCTYPE svg PUBLIC "-//W3C//DTD SVG 1.1//EN" "http://www.w3.org/Graphics/SVG/1.1/DTD/svg11.dtd">
<svg version="1.1" xmlns="http://www.w3.org/2000/svg" xmlns:xlink="http://www.w3.org/1999/xlink" preserveAspectRatio="xMidYMid meet" viewBox="0 0 640 640" width="640" height="640"><defs><path d="M490.88 202.71C482.32 198.13 471.08 182.34 471.08 182.34C471.08 182.33 471.09 182.31 471.09 182.31C463.47 172.47 456.69 161.87 448.66 152.33C415.98 113.41 364.09 124.93 327.54 152.87C293.13 179.18 270.7 221.86 271.23 265.46C271.28 269.01 271.48 272.54 271.82 276.05C276.25 320.78 304.9 361.84 345.99 380.96C413.14 412.21 502.57 378.66 531.38 309.55C541.93 284.29 542.55 252.37 524.17 230.11C515 219.01 502.28 211.66 490.94 202.73C490.92 202.72 490.9 202.72 490.88 202.71Z" id="bqQkr4QG9"></path><linearGradient id="gradientf4NkmfXnl" gradientUnits="userSpaceOnUse" x1="242.57" y1="231.88" x2="587.58" y2="295.53"><stop style="stop-color: #1970e2;stop-opacity: 1" offset="0%"></stop><stop style="stop-color: #66d4ff;stop-opacity: 1" offset="100%"></stop></linearGradient><path d="M400.93 102.62L404.99 102.94L409.01 103.43L412.99 104.08L416.92 104.89L420.79 105.86L424.62 106.98L428.39 108.27L432.09 109.72L435.73 111.33L439.31 113.1L442.81 115.03L446.24 117.12L449.59 119.37L452.85 121.78L456.04 124.34L459.13 127.07L462.14 129.96L465.04 133.01L467.85 136.21L468.25 136.69L468.65 137.17L469.05 137.65L469.44 138.13L469.83 138.61L470.22 139.09L470.6 139.57L470.99 140.05L471.37 140.53L471.74 141.01L472.12 141.49L472.5 141.97L472.87 142.45L473.24 142.93L473.61 143.41L473.97 143.9L474.34 144.38L474.7 144.86L475.06 145.34L475.42 145.82L475.78 146.3L476.13 146.78L476.49 147.26L476.84 147.74L477.19 148.22L477.54 148.7L477.89 149.18L478.24 149.66L478.59 150.14L478.93 150.61L479.28 151.09L479.62 151.57L479.96 152.05L480.31 152.52L480.65 153L480.99 153.47L481.32 153.94L481.66 154.42L482 154.89L482.34 155.36L482.41 155.46L482.48 155.56L482.55 155.66L482.62 155.76L482.69 155.86L482.76 155.96L482.83 156.06L482.9 156.16L482.97 156.26L483.05 156.35L483.12 156.45L483.19 156.55L483.26 156.65L483.33 156.75L483.4 156.85L483.47 156.94L483.54 157.04L483.61 157.14L483.68 157.24L483.75 157.33L483.82 157.43L483.89 157.53L483.96 157.63L484.03 157.73L484.1 157.82L484.17 157.92L484.24 158.02L484.31 158.11L484.38 158.21L484.45 158.31L484.53 158.41L484.6 158.5L484.67 158.6L484.81 158.79L484.95 158.99L485.16 159.28L485.75 160.07L486.36 160.88L487 161.7L487.66 162.53L488.35 163.36L489.05 164.21L489.77 165.06L490.51 165.91L491.25 166.77L492.01 167.62L492.78 168.48L493.56 169.33L494.33 170.18L495.11 171.02L495.89 171.85L496.67 172.68L497.45 173.49L498.22 174.29L498.98 175.07L499.73 175.84L500.46 176.59L501.19 177.32L501.89 178.03L502.58 178.72L503.24 179.38L503.89 180.02L504.5 180.62L505.09 181.2L505.65 181.75L506.18 182.26L506.68 182.74L507.14 183.18L507.56 183.59L507.94 183.95L508.28 184.28L508.58 184.56L508.83 184.79L509.03 184.98L509.18 185.12L509.28 185.22L509.43 185.33L509.59 185.45L509.74 185.56L509.9 185.68L510.06 185.8L510.21 185.91L510.37 186.03L510.53 186.15L510.68 186.26L510.84 186.38L511 186.5L511.15 186.61L511.31 186.73L511.47 186.85L511.63 186.97L511.79 187.08L511.95 187.2L512.11 187.32L512.27 187.44L512.43 187.55L512.59 187.67L512.75 187.79L512.91 187.91L513.07 188.02L513.23 188.14L513.39 188.26L513.55 188.38L513.72 188.5L513.88 188.62L514.04 188.73L514.2 188.85L514.37 188.97L514.53 189.09L514.7 189.21L514.86 189.33L515.02 189.45L515.19 189.57L515.35 189.69L515.52 189.81L515.69 189.93L516.37 190.42L517.05 190.91L517.74 191.41L518.43 191.91L519.12 192.41L519.82 192.92L520.52 193.43L521.23 193.95L521.93 194.47L522.64 195L523.35 195.53L524.06 196.07L524.77 196.61L525.48 197.16L526.2 197.72L526.91 198.28L527.63 198.85L528.34 199.42L529.06 200L529.77 200.59L530.48 201.19L531.19 201.79L531.9 202.4L532.61 203.02L533.32 203.65L534.02 204.28L534.72 204.93L535.42 205.58L536.12 206.24L536.81 206.91L537.5 207.59L538.19 208.28L538.87 208.98L539.55 209.69L540.22 210.4L540.89 211.13L541.55 211.87L542.2 212.62L542.86 213.38L543.5 214.15L545.15 216.22L546.73 218.33L548.25 220.49L549.69 222.69L551.07 224.94L552.37 227.23L553.61 229.56L554.78 231.92L555.88 234.33L556.91 236.76L557.86 239.24L558.75 241.74L559.57 244.28L560.32 246.85L560.99 249.44L561.6 252.06L562.13 254.71L562.6 257.38L562.99 260.08L563.31 262.79L563.56 265.52L563.74 268.28L563.85 271.04L563.88 273.83L563.84 276.62L563.73 279.43L563.55 282.25L563.3 285.08L562.97 287.92L562.57 290.76L562.09 293.61L561.55 296.46L560.93 299.31L560.23 302.16L559.47 305.01L558.62 307.86L557.71 310.7L556.72 313.54L555.65 316.38L554.52 319.2L553.94 320.55L553.36 321.89L552.76 323.23L552.15 324.57L551.53 325.89L550.89 327.21L550.24 328.52L549.58 329.83L548.9 331.13L548.21 332.42L547.51 333.71L546.79 334.99L546.07 336.26L545.33 337.53L544.57 338.79L543.81 340.04L543.03 341.29L542.23 342.53L541.43 343.76L540.61 344.98L539.78 346.2L538.94 347.41L538.09 348.62L537.22 349.81L536.34 351L535.45 352.18L534.54 353.36L533.62 354.52L532.7 355.68L531.75 356.83L530.8 357.98L529.83 359.11L528.85 360.24L527.86 361.37L526.86 362.48L525.84 363.58L524.81 364.68L523.77 365.77L522.72 366.86L521.66 367.93L521.65 367.94L517.91 371.57L514.07 375.06L510.13 378.42L506.11 381.65L502 384.75L497.81 387.72L493.54 390.55L489.19 393.24L484.78 395.81L480.3 398.23L475.75 400.52L471.15 402.67L466.5 404.68L461.79 406.55L457.04 408.28L452.25 409.87L447.43 411.32L442.56 412.63L437.67 413.79L432.76 414.81L427.82 415.68L422.86 416.41L417.9 416.99L412.92 417.42L407.94 417.71L402.96 417.85L397.98 417.83L393.01 417.67L388.05 417.35L383.1 416.89L378.18 416.27L373.28 415.5L368.4 414.57L363.56 413.49L358.76 412.25L353.99 410.85L349.27 409.3L344.6 407.59L339.98 405.72L335.42 403.69L335.17 403.57L334.93 403.46L334.69 403.35L334.45 403.23L334.21 403.12L333.97 403L333.72 402.89L333.48 402.77L333.24 402.65L333 402.53L332.76 402.42L332.52 402.3L332.29 402.18L332.05 402.06L331.81 401.94L331.57 401.82L331.33 401.7L331.09 401.58L330.86 401.46L330.62 401.33L330.38 401.21L330.14 401.09L329.91 400.97L329.67 400.84L329.43 400.72L329.2 400.59L328.96 400.47L328.73 400.34L328.49 400.22L328.26 400.09L328.02 399.96L327.79 399.84L327.55 399.71L327.32 399.58L327.08 399.45L326.85 399.33L326.61 399.2L326.38 399.07L326.15 398.94L325.91 398.81L325.71 398.32L325.5 397.83L325.29 397.34L325.08 396.85L324.85 396.37L324.63 395.88L324.4 395.4L324.16 394.92L323.92 394.44L323.67 393.97L323.42 393.49L323.17 393.02L322.91 392.55L322.64 392.08L322.37 391.62L322.1 391.15L321.82 390.69L321.53 390.23L321.24 389.78L320.95 389.32L320.65 388.87L320.34 388.42L320.03 387.97L319.72 387.53L319.4 387.08L319.08 386.64L318.75 386.21L318.41 385.77L318.07 385.34L317.73 384.91L317.38 384.49L317.02 384.06L316.66 383.64L316.3 383.22L315.93 382.81L315.56 382.4L315.18 381.99L314.79 381.58L314.4 381.18L314.01 380.78L274.65 341.43L274.39 341.16L274.12 340.9L273.85 340.64L273.58 340.38L273.3 340.12L273.03 339.87L272.75 339.62L272.47 339.37L272.19 339.12L271.91 338.88L271.63 338.63L271.35 338.39L271.06 338.15L270.78 337.92L270.49 337.68L270.2 337.45L269.91 337.22L269.62 336.99L269.32 336.77L269.03 336.54L268.73 336.32L268.43 336.1L268.14 335.89L267.84 335.67L267.54 335.46L267.23 335.25L266.93 335.04L266.62 334.83L266.32 334.63L266.01 334.43L265.7 334.23L265.39 334.03L265.08 333.83L264.77 333.64L264.46 333.45L264.14 333.26L263.82 333.07L263.51 332.89L263.19 332.7L262.87 332.52L262.24 331.26L261.61 329.99L261 328.71L260.4 327.43L259.81 326.15L259.24 324.86L258.67 323.56L258.11 322.26L257.57 320.96L257.04 319.64L256.52 318.33L256.01 317.01L255.51 315.69L255.03 314.36L254.56 313.02L254.1 311.69L253.65 310.34L253.21 309L252.79 307.65L252.38 306.29L251.98 304.94L251.59 303.58L251.22 302.21L250.86 300.84L250.51 299.47L250.18 298.09L249.85 296.71L249.54 295.33L249.25 293.95L248.96 292.56L248.7 291.17L248.44 289.77L248.2 288.37L247.97 286.97L247.75 285.57L247.55 284.17L247.36 282.76L247.19 281.35L247.02 279.94L246.88 278.52L246.85 278.2L246.82 277.89L246.79 277.57L246.76 277.25L246.73 276.93L246.7 276.61L246.67 276.29L246.65 275.97L246.62 275.65L246.6 275.34L246.57 275.02L246.55 274.7L246.53 274.38L246.5 274.06L246.48 273.74L246.46 273.42L246.44 273.1L246.42 272.78L246.4 272.46L246.39 272.14L246.37 271.82L246.35 271.5L246.34 271.18L246.32 270.86L246.31 270.54L246.29 270.22L246.28 269.91L246.27 269.59L246.25 269.27L246.24 268.95L246.23 268.63L246.22 268.31L246.21 267.99L246.21 267.67L246.2 267.36L246.19 267.04L246.19 266.72L246.18 266.4L246.18 266.08L246.17 265.77L246.17 262.53L246.23 259.3L246.36 256.06L246.56 252.83L246.83 249.61L247.17 246.39L247.57 243.18L248.04 239.97L248.58 236.77L249.18 233.59L249.85 230.41L250.58 227.24L251.38 224.09L252.24 220.95L253.17 217.83L254.15 214.72L255.21 211.63L256.32 208.55L257.49 205.5L258.73 202.46L260.03 199.45L261.38 196.46L262.8 193.49L264.28 190.54L265.82 187.62L267.41 184.73L269.07 181.86L270.78 179.02L272.55 176.21L274.37 173.43L276.26 170.68L278.2 167.97L280.19 165.28L282.24 162.64L284.35 160.02L286.51 157.45L288.72 154.91L290.99 152.41L293.31 149.95L295.68 147.53L296.07 147.14L296.47 146.75L296.86 146.36L297.26 145.97L297.66 145.58L298.06 145.2L298.46 144.81L298.86 144.43L299.26 144.05L299.67 143.67L300.07 143.29L300.48 142.91L300.89 142.54L301.3 142.16L301.71 141.79L302.12 141.42L302.53 141.05L302.95 140.68L303.36 140.31L303.78 139.95L304.2 139.58L304.62 139.22L305.03 138.86L305.46 138.5L305.88 138.14L306.3 137.79L306.72 137.43L307.15 137.08L307.57 136.72L308 136.37L308.43 136.03L308.85 135.68L309.28 135.33L309.71 134.99L310.14 134.65L310.58 134.31L311.01 133.97L311.44 133.63L311.88 133.29L312.31 132.96L316.44 129.9L320.59 127L324.78 124.27L328.99 121.69L333.22 119.28L337.46 117.03L341.72 114.94L345.99 113.01L350.27 111.24L354.55 109.64L358.84 108.19L363.12 106.91L367.39 105.79L371.65 104.83L375.9 104.03L380.13 103.39L384.35 102.92L388.54 102.6L392.7 102.45L396.83 102.45L400.93 102.62ZM389.55 127.53L386.3 127.82L383.05 128.23L379.8 128.76L376.55 129.4L373.31 130.16L370.07 131.03L366.85 132L363.64 133.08L360.45 134.25L357.29 135.53L354.15 136.89L351.03 138.35L347.95 139.89L344.9 141.52L341.9 143.23L338.93 145.02L336.01 146.88L333.13 148.81L330.31 150.81L327.54 152.87L324.98 154.88L322.47 156.94L320 159.06L317.59 161.24L315.22 163.47L312.9 165.76L310.63 168.11L308.42 170.5L306.26 172.94L304.15 175.43L302.1 177.97L300.1 180.55L298.16 183.18L296.28 185.85L294.46 188.56L292.7 191.31L291 194.1L289.37 196.93L287.79 199.79L286.28 202.68L284.84 205.61L283.46 208.57L282.15 211.56L280.91 214.57L279.74 217.61L278.64 220.68L277.61 223.77L276.66 226.89L275.78 230.02L274.97 233.17L274.24 236.35L273.58 239.53L273 242.74L272.51 245.95L272.09 249.18L271.75 252.42L271.5 255.67L271.32 258.93L271.24 262.19L271.23 265.46L271.24 265.72L271.24 265.99L271.24 266.26L271.25 266.52L271.26 266.79L271.26 267.06L271.27 267.32L271.28 267.59L271.28 267.85L271.29 268.12L271.3 268.38L271.31 268.65L271.32 268.91L271.33 269.18L271.34 269.45L271.36 269.71L271.37 269.98L271.38 270.24L271.4 270.51L271.41 270.77L271.43 271.03L271.44 271.3L271.46 271.56L271.47 271.83L271.49 272.09L271.51 272.36L271.53 272.62L271.55 272.89L271.56 273.15L271.58 273.41L271.61 273.68L271.63 273.94L271.65 274.21L271.67 274.47L271.69 274.73L271.72 275L271.74 275.26L271.76 275.52L271.79 275.79L271.81 276.05L272.19 279.4L272.66 282.73L273.21 286.05L273.86 289.34L274.59 292.62L275.4 295.87L276.3 299.1L277.28 302.3L278.35 305.48L279.49 308.62L280.72 311.74L282.02 314.82L283.4 317.87L284.86 320.89L286.4 323.86L288 326.8L289.68 329.69L291.44 332.54L293.26 335.35L295.15 338.11L297.12 340.82L299.14 343.49L301.24 346.1L303.4 348.66L305.63 351.16L307.92 353.61L310.27 356L312.68 358.32L315.15 360.59L317.69 362.8L320.27 364.93L322.92 367.01L325.62 369.01L328.38 370.94L331.18 372.8L334.04 374.59L336.96 376.3L339.92 377.93L342.93 379.49L345.99 380.96L351.06 383.19L356.22 385.17L361.44 386.91L366.72 388.42L372.05 389.7L377.43 390.75L382.84 391.57L388.29 392.17L393.75 392.55L399.23 392.71L404.72 392.65L410.2 392.38L415.67 391.9L421.13 391.21L426.56 390.32L431.96 389.23L437.31 387.94L442.62 386.45L447.87 384.76L453.06 382.89L458.18 380.83L463.21 378.58L468.16 376.15L473.01 373.54L477.76 370.76L482.4 367.79L486.93 364.66L491.32 361.36L495.58 357.89L499.7 354.26L503.67 350.47L507.48 346.51L511.13 342.41L514.6 338.15L517.9 333.74L521 329.19L523.91 324.49L526.62 319.64L529.11 314.66L531.38 309.55L532.15 307.64L532.89 305.71L533.58 303.76L534.24 301.79L534.85 299.79L535.43 297.79L535.96 295.76L536.45 293.72L536.89 291.67L537.29 289.61L537.64 287.54L537.95 285.46L538.21 283.37L538.42 281.28L538.58 279.18L538.69 277.08L538.75 274.99L538.76 272.89L538.72 270.79L538.62 268.7L538.47 266.62L538.26 264.54L538 262.47L537.68 260.41L537.31 258.37L536.87 256.33L536.38 254.31L535.82 252.31L535.21 250.33L534.53 248.36L533.79 246.42L532.99 244.5L532.12 242.6L531.18 240.73L530.18 238.88L529.12 237.06L527.98 235.28L526.78 233.52L525.51 231.8L524.16 230.11L523.47 229.29L522.76 228.47L522.04 227.68L521.31 226.89L520.57 226.11L519.82 225.35L519.05 224.6L518.28 223.86L517.49 223.13L516.7 222.41L515.9 221.69L515.09 220.99L514.27 220.29L513.45 219.61L512.61 218.92L511.78 218.25L510.93 217.58L510.08 216.92L509.23 216.26L508.37 215.61L507.5 214.96L506.64 214.31L505.77 213.67L504.89 213.03L504.02 212.39L503.14 211.75L502.26 211.12L501.38 210.48L500.5 209.85L499.62 209.21L498.74 208.58L497.87 207.94L496.99 207.3L496.12 206.66L495.24 206.02L494.37 205.37L493.51 204.72L492.65 204.06L491.79 203.4L490.94 202.73L490.93 202.73L490.93 202.73L490.92 202.73L490.91 202.72L490.91 202.72L490.9 202.72L490.89 202.72L490.88 202.71L490.24 202.35L489.58 201.95L488.92 201.51L488.25 201.03L487.57 200.52L486.9 199.99L486.22 199.42L485.53 198.84L484.85 198.23L484.18 197.6L483.5 196.95L482.83 196.29L482.16 195.62L481.5 194.94L480.85 194.25L480.21 193.56L479.58 192.87L478.96 192.18L478.36 191.49L477.77 190.81L477.19 190.13L476.64 189.47L476.1 188.82L475.58 188.19L475.08 187.58L474.61 186.98L474.16 186.41L473.74 185.87L473.34 185.36L472.97 184.88L472.62 184.43L472.31 184.01L472.03 183.64L471.79 183.31L471.58 183.02L471.4 182.78L471.26 182.59L471.16 182.45L471.1 182.36L471.08 182.34L471.09 182.31L470.52 181.57L469.96 180.83L469.39 180.08L468.83 179.33L468.27 178.59L467.71 177.83L467.16 177.08L466.6 176.33L466.05 175.57L465.5 174.81L464.95 174.05L464.4 173.3L463.86 172.53L463.31 171.77L462.76 171.01L462.22 170.25L461.67 169.49L461.12 168.73L460.58 167.97L460.03 167.21L459.48 166.45L458.93 165.69L458.38 164.93L457.83 164.17L457.28 163.41L456.72 162.66L456.16 161.9L455.6 161.15L455.04 160.4L454.48 159.66L453.91 158.91L453.34 158.17L452.77 157.43L452.2 156.69L451.62 155.95L451.03 155.22L450.45 154.49L449.86 153.77L449.26 153.05L448.66 152.33L446.17 149.51L443.62 146.87L441 144.41L438.31 142.14L435.57 140.03L432.77 138.11L429.92 136.35L427.02 134.76L424.08 133.33L421.09 132.07L418.06 130.96L414.99 130L411.89 129.2L408.77 128.54L405.61 128.03L402.43 127.66L399.23 127.43L396.02 127.33L392.79 127.37L389.55 127.53Z" id="a1SrtLDZp"></path><linearGradient id="gradientb2H4DV2359" gradientUnits="userSpaceOnUse" x1="242.56" y1="232.02" x2="587.55" y2="295.66"><stop style="stop-color: #1970e2;stop-opacity: 1" offset="0%"></stop><stop style="stop-color: #66d4ff;stop-opacity: 1" offset="100%"></stop></linearGradient><path d="M232.64 270.41C240.32 278.09 240.32 290.54 232.64 298.23C224.96 305.91 212.5 305.91 204.83 298.23C197.15 290.54 197.15 278.09 204.83 270.41C212.5 262.73 224.96 262.73 232.64 270.41" id="bQqE5AyfZ"></path><linearGradient id="gradientaDKyxE9SX" gradientUnits="userSpaceOnUse" x1="13.18" y1="228.15" x2="696.18" y2="414.79"><stop style="stop-color: #1970e2;stop-opacity: 1" offset="0%"></stop><stop style="stop-color: #66d4ff;stop-opacity: 1" offset="100%"></stop></linearGradient><path d="M596.29 317.03C603.98 324.72 603.98 337.16 596.29 344.85C588.61 352.53 576.16 352.53 568.48 344.85C560.8 337.16 560.8 324.72 568.48 317.03C576.16 309.35 588.61 309.35 596.29 317.03" id="a13F5NDMr3"></path><linearGradient id="gradientd2nVenBF9y" gradientUnits="userSpaceOnUse" x1="26.61" y1="179.07" x2="709.59" y2="365.7"><stop style="stop-color: #1970e2;stop-opacity: 1" offset="0%"></stop><stop style="stop-color: #66d4ff;stop-opacity: 1" offset="100%"></stop></linearGradient><path d="M501.63 102.27C508.19 108.83 508.19 119.46 501.63 126.02C495.07 132.57 484.45 132.57 477.89 126.02C471.33 119.46 471.33 108.83 477.89 102.27C484.45 95.72 495.07 95.72 501.63 102.27" id="by8utfDKs"></path><linearGradient id="gradientdnoJ19T8" gradientUnits="userSpaceOnUse" x1="75.25" y1="0.88" x2="758.31" y2="187.53"><stop style="stop-color: #1970e2;stop-opacity: 1" offset="0%"></stop><stop style="stop-color: #66d4ff;stop-opacity: 1" offset="100%"></stop></linearGradient><path d="M357.14 73.17C361.66 73.17 365.32 76.84 365.32 81.35C365.32 85.87 361.66 89.54 357.14 89.54C352.62 89.54 348.96 85.87 348.96 81.35C348.96 76.84 352.62 73.17 357.14 73.17" id="b1WfBLxlH"></path><linearGradient id="gradientaoZvEI8I3" gradientUnits="userSpaceOnUse" x1="74.45" y1="4.11" x2="757.35" y2="190.71"><stop style="stop-color: #1970e2;stop-opacity: 1" offset="0%"></stop><stop style="stop-color: #66d4ff;stop-opacity: 1" offset="100%"></stop></linearGradient><path d="M583.01 222.95C587.53 222.95 591.19 226.62 591.19 231.13C591.19 235.64 587.53 239.3 583.01 239.3C578.49 239.3 574.83 235.64 574.83 231.13C574.83 226.62 578.49 222.95 583.01 222.95" id="dPPGOqznZ"></path><linearGradient id="gradientb5r7IM7Tk" gradientUnits="userSpaceOnUse" x1="52.02" y1="86.03" x2="735.02" y2="272.67"><stop style="stop-color: #1970e2;stop-opacity: 1" offset="0%"></stop><stop style="stop-color: #66d4ff;stop-opacity: 1" offset="100%"></stop></linearGradient><path d="M420.57 21.32C425.09 21.32 428.74 24.98 428.74 29.5C428.74 34.02 425.09 37.68 420.57 37.68C416.04 37.68 412.39 34.02 412.39 29.5C412.39 24.98 416.04 21.32 420.57 21.32" id="a1DAqLvRtw"></path><linearGradient id="gradientc1ejGT9run" gradientUnits="userSpaceOnUse" x1="92.01" y1="-60.28" x2="774.98" y2="126.35"><stop style="stop-color: #1970e2;stop-opacity: 1" offset="0%"></stop><stop style="stop-color: #66d4ff;stop-opacity: 1" offset="100%"></stop></linearGradient><path d="M551.35 372.59C555.86 372.59 559.52 376.25 559.52 380.77C559.52 385.28 555.86 388.94 551.35 388.94C546.82 388.94 543.17 385.28 543.17 380.77C543.17 376.25 546.82 372.59 551.35 372.59" id="a20VNcjWmP"></path><linearGradient id="gradiente7owzCJP1l" gradientUnits="userSpaceOnUse" x1="11.79" y1="233.33" x2="694.76" y2="419.96"><stop style="stop-color: #1970e2;stop-opacity: 1" offset="0%"></stop><stop style="stop-color: #66d4ff;stop-opacity: 1" offset="100%"></stop></linearGradient><path d="M260.11 158.63C264.63 158.63 268.29 162.29 268.29 166.81C268.29 171.33 264.63 174.99 260.11 174.99C255.6 174.99 251.94 171.33 251.94 166.81C251.94 162.29 255.6 158.63 260.11 158.63" id="a2SgTEb66"></path><linearGradient id="gradientg3ZLy78BiL" gradientUnits="userSpaceOnUse" x1="45.94" y1="108.29" x2="728.92" y2="294.92"><stop style="stop-color: #1970e2;stop-opacity: 1" offset="0%"></stop><stop style="stop-color: #66d4ff;stop-opacity: 1" offset="100%"></stop></linearGradient><path d="M423.87 453.46C428.39 453.46 432.05 457.13 432.05 461.64C432.05 466.16 428.39 469.82 423.87 469.82C419.35 469.82 415.69 466.16 415.69 461.64C415.69 457.13 419.35 453.46 423.87 453.46" id="b3t60rx23X"></path><linearGradient id="gradientd7n8C3n50U" gradientUnits="userSpaceOnUse" x1="-17.74" y1="340.97" x2="665.4" y2="527.64"><stop style="stop-color: #1970e2;stop-opacity: 1" offset="0%"></stop><stop style="stop-color: #66d4ff;stop-opacity: 1" offset="100%"></stop></linearGradient><path d="M211.43 207.31C215.95 207.31 219.61 210.98 219.61 215.5C219.61 220.02 215.95 223.67 211.43 223.67C206.91 223.67 203.25 220.02 203.25 215.5C203.25 210.98 206.91 207.31 211.43 207.31" id="akGNhkrhD"></path><linearGradient id="gradientaYCgWhVWz" gradientUnits="userSpaceOnUse" x1="30.19" y1="165.97" x2="713.13" y2="352.59"><stop style="stop-color: #1970e2;stop-opacity: 1" offset="0%"></stop><stop style="stop-color: #66d4ff;stop-opacity: 1" offset="100%"></stop></linearGradient><path d="M369.91 436.05C374.43 436.05 378.09 439.71 378.09 444.22C378.09 448.74 374.43 452.41 369.91 452.41C365.39 452.41 361.73 448.74 361.73 444.22C361.73 439.71 365.39 436.05 369.91 436.05" id="d2ORRBqEqJ"></path><linearGradient id="gradientb2FujvWCg" gradientUnits="userSpaceOnUse" x1="-16.95" y1="338.52" x2="666.01" y2="525.14"><stop style="stop-color: #1970e2;stop-opacity: 1" offset="0%"></stop><stop style="stop-color: #66d4ff;stop-opacity: 1" offset="100%"></stop></linearGradient><path d="M500.27 413.06C506.82 419.62 506.82 430.24 500.27 436.8C493.7 443.35 483.08 443.35 476.52 436.8C469.97 430.24 469.97 419.62 476.52 413.06C483.08 406.5 493.7 406.5 500.27 413.06" id="dBmD3WqxL"></path><linearGradient id="gradientghb0fEM2T" gradientUnits="userSpaceOnUse" x1="-3.81" y1="290.43" x2="679.15" y2="477.06"><stop style="stop-color: #1970e2;stop-opacity: 1" offset="0%"></stop><stop style="stop-color: #66d4ff;stop-opacity: 1" offset="100%"></stop></linearGradient><path d="M239.21 330.96L240.94 331.09L242.67 331.29L244.39 331.55L246.11 331.86L247.81 332.24L249.5 332.69L251.18 333.19L252.84 333.75L254.48 334.37L256.1 335.06L257.71 335.8L259.29 336.61L260.84 337.47L262.37 338.4L263.87 339.38L265.34 340.43L266.78 341.53L268.18 342.7L269.55 343.92L270.88 345.2L310.23 384.55L311.53 385.89L312.76 387.28L313.94 388.7L315.05 390.15L316.1 391.63L317.09 393.15L318.02 394.69L318.89 396.27L319.7 397.86L320.45 399.48L321.13 401.12L321.75 402.78L322.31 404.46L322.81 406.15L323.25 407.86L323.62 409.58L323.93 411.31L324.18 413.05L324.37 414.8L324.5 416.55L324.56 418.3L324.56 420.06L324.49 421.82L324.37 423.57L324.18 425.32L323.93 427.07L323.61 428.8L323.23 430.53L322.79 432.25L322.28 433.95L321.72 435.64L321.08 437.32L320.38 438.97L319.62 440.6L318.8 442.22L317.91 443.81L316.96 445.37L315.94 446.91L314.86 448.41L313.71 449.89L172.08 625.42L27.89 481.23L206.05 341.32L207.52 340.2L209.03 339.15L210.56 338.16L212.12 337.24L213.71 336.37L215.32 335.58L216.94 334.84L218.59 334.17L220.26 333.56L221.94 333.01L223.63 332.52L225.33 332.1L227.05 331.74L228.78 331.44L230.51 331.21L232.24 331.03L233.98 330.92L235.72 330.87L237.47 330.88L239.21 330.96ZM283.92 384.47L282.9 384.68L281.85 384.99L280.79 385.4L280.41 385.57L280.03 385.75L279.65 385.94L279.29 386.14L278.92 386.34L278.57 386.56L278.22 386.78L277.87 387.01L277.53 387.25L277.19 387.5L276.86 387.75L276.53 388.01L276.21 388.27L275.89 388.55L275.58 388.82L275.27 389.11L274.97 389.4L274.66 389.69L274.37 389.99L274.08 390.3L273.79 390.6L273.5 390.92L273.22 391.23L272.94 391.56L272.67 391.88L272.39 392.21L272.13 392.54L271.86 392.88L271.6 393.21L271.34 393.55L271.08 393.89L270.83 394.24L270.58 394.58L270.33 394.93L270.08 395.28L269.84 395.62L269.6 395.97L269.35 396.32L269.12 396.67L268.88 397.02L267.73 398.76L266.6 400.5L265.51 402.24L264.45 403.99L263.42 405.75L262.41 407.51L261.43 409.28L260.48 411.06L259.55 412.84L258.65 414.63L257.77 416.43L256.92 418.23L256.08 420.04L255.27 421.85L254.48 423.67L253.71 425.5L252.96 427.34L252.23 429.18L251.51 431.03L250.82 432.88L250.14 434.74L249.47 436.61L248.82 438.48L248.18 440.36L247.56 442.25L246.95 444.15L246.35 446.05L245.76 447.96L245.18 449.87L244.61 451.8L244.05 453.73L243.49 455.66L242.95 457.61L242.4 459.56L241.87 461.52L241.34 463.48L240.81 465.46L240.29 467.44L239.77 469.42L239.25 471.42L238.45 474.27L237.58 477.11L236.61 479.91L235.56 482.69L234.44 485.45L233.24 488.19L231.97 490.9L230.63 493.59L229.22 496.26L227.76 498.91L226.23 501.54L224.65 504.15L223.02 506.74L221.34 509.31L219.61 511.87L217.84 514.41L216.03 516.93L214.19 519.44L212.31 521.93L210.41 524.41L208.48 526.87L206.52 529.33L204.55 531.77L202.57 534.2L200.56 536.61L198.56 539.02L196.54 541.42L194.52 543.81L192.5 546.19L190.49 548.56L188.49 550.93L186.49 553.28L184.51 555.64L182.54 557.99L180.6 560.33L178.68 562.67L176.78 565.01L174.92 567.34L173.09 569.67L171.3 572L170.91 572.5L170.5 573.01L170.07 573.53L169.62 574.07L169.15 574.61L168.66 575.17L168.15 575.75L167.64 576.33L167.11 576.92L166.57 577.52L166.02 578.13L165.47 578.75L164.92 579.38L164.37 580.02L163.81 580.67L163.26 581.32L162.71 581.98L162.17 582.64L161.64 583.31L161.12 583.99L160.61 584.66L160.11 585.35L159.64 586.04L159.18 586.73L158.74 587.42L158.32 588.12L157.92 588.81L157.56 589.51L157.22 590.21L156.91 590.91L156.63 591.61L156.39 592.31L156.18 593L156.02 593.7L155.89 594.39L155.8 595.08L155.76 595.77L155.76 596.46L155.81 597.14L155.91 597.81L156.01 598.25L156.13 598.68L156.27 599.1L156.44 599.52L156.63 599.93L156.85 600.34L157.08 600.75L157.33 601.15L157.6 601.54L157.89 601.93L158.19 602.32L158.51 602.7L158.83 603.08L159.18 603.45L159.53 603.82L159.89 604.19L160.26 604.56L160.64 604.92L161.02 605.28L161.41 605.63L161.8 605.98L162.2 606.34L162.59 606.68L162.99 607.03L163.39 607.38L163.78 607.72L164.17 608.06L164.56 608.4L164.94 608.74L165.32 609.08L165.69 609.42L166.04 609.76L166.39 610.09L166.73 610.43L167.06 610.77L167.37 611.1L167.66 611.44L167.95 611.77L168.21 612.11L168.46 612.45L168.62 612.23L168.79 612.02L168.95 611.8L169.12 611.59L169.28 611.37L169.45 611.15L169.62 610.94L169.79 610.72L169.95 610.5L170.12 610.29L170.29 610.07L170.46 609.86L170.62 609.64L170.79 609.42L170.96 609.21L171.13 608.99L171.3 608.78L171.47 608.56L171.64 608.34L171.81 608.13L171.98 607.91L172.14 607.7L172.31 607.48L172.48 607.27L172.65 607.05L172.82 606.83L172.99 606.62L173.16 606.4L173.5 605.97L173.67 605.76L173.84 605.54L174.01 605.33L174.18 605.11L174.34 604.89L174.51 604.68L174.68 604.46L174.85 604.25L175.02 604.03L175.19 603.82L178.24 599.91L181.3 596.01L184.36 592.1L187.41 588.2L190.47 584.29L193.53 580.39L196.59 576.49L199.65 572.59L202.71 568.68L205.77 564.78L208.84 560.88L211.9 556.98L214.96 553.08L218.03 549.18L221.09 545.28L224.15 541.38L227.22 537.48L230.28 533.58L233.35 529.68L236.41 525.78L239.48 521.89L242.54 517.99L245.61 514.09L248.67 510.19L251.74 506.29L254.81 502.39L257.87 498.49L260.94 494.6L264 490.7L267.07 486.8L270.13 482.9L273.2 479L276.26 475.1L279.33 471.2L282.39 467.3L285.45 463.4L288.52 459.5L291.58 455.6L294.64 451.7L297.7 447.8L298.3 447.03L298.87 446.25L299.43 445.45L299.97 444.65L300.49 443.83L300.99 443L301.47 442.17L301.94 441.32L302.39 440.47L302.81 439.6L303.22 438.73L303.61 437.85L303.99 436.96L304.34 436.07L304.67 435.17L304.99 434.26L305.28 433.34L305.56 432.42L305.81 431.5L306.05 430.57L306.27 429.63L306.47 428.69L306.64 427.74L306.8 426.8L306.94 425.84L307.06 424.89L307.16 423.93L307.23 422.97L307.29 422.01L307.33 421.05L307.35 420.09L307.34 419.12L307.32 418.16L307.27 417.19L307.2 416.23L307.12 415.26L307.01 414.3L306.88 413.34L306.73 412.38L306.56 411.42L306.39 410.6L306.2 409.74L305.98 408.85L305.73 407.93L305.45 406.98L305.15 406.02L304.82 405.03L304.47 404.02L304.09 403.01L303.68 401.99L303.25 400.96L302.79 399.93L302.31 398.91L301.81 397.89L301.28 396.88L300.72 395.89L300.14 394.91L299.54 393.95L298.91 393.02L298.26 392.11L297.59 391.24L296.9 390.4L296.18 389.6L295.44 388.84L294.68 388.13L293.89 387.47L293.09 386.86L292.26 386.3L291.42 385.81L290.55 385.38L289.66 385.02L288.75 384.73L287.83 384.52L286.88 384.38L285.91 384.32L284.92 384.35L283.92 384.47ZM233.52 348.25L232.56 348.3L231.6 348.38L230.65 348.48L229.69 348.6L228.74 348.74L227.79 348.89L226.85 349.07L225.91 349.27L224.97 349.49L224.04 349.72L223.11 349.98L222.19 350.26L221.28 350.55L220.37 350.86L219.47 351.2L218.57 351.55L217.68 351.92L216.8 352.31L215.93 352.72L215.07 353.15L214.21 353.6L213.37 354.06L212.53 354.54L211.7 355.05L210.89 355.57L210.08 356.1L209.29 356.66L208.5 357.23L207.73 357.83L203.83 360.89L199.93 363.95L196.03 367.02L192.13 370.08L188.23 373.14L184.33 376.21L180.43 379.27L176.53 382.34L172.63 385.4L168.73 388.47L164.83 391.53L160.93 394.6L157.04 397.66L153.14 400.73L149.24 403.8L145.34 406.86L141.44 409.93L137.54 412.99L133.65 416.06L129.75 419.12L125.85 422.19L121.95 425.25L118.05 428.32L114.15 431.38L110.25 434.45L106.35 437.51L102.45 440.57L98.55 443.64L94.65 446.7L90.75 449.76L86.85 452.82L82.95 455.88L79.05 458.94L75.14 462L71.24 465.06L67.34 468.12L63.43 471.18L59.53 474.24L55.62 477.29L51.71 480.35L51.5 480.52L51.28 480.68L51.07 480.85L50.85 481.02L50.64 481.19L50.42 481.36L50.21 481.53L49.99 481.7L49.78 481.87L49.56 482.04L49.34 482.21L49.13 482.38L48.91 482.55L48.7 482.72L48.48 482.89L48.27 483.05L48.05 483.22L47.84 483.39L47.62 483.56L47.4 483.73L47.19 483.9L46.97 484.07L46.76 484.24L46.54 484.41L46.33 484.58L46.11 484.74L45.89 484.91L45.68 485.08L45.46 485.25L45.25 485.41L45.03 485.58L44.81 485.75L44.6 485.92L44.38 486.08L44.17 486.25L43.95 486.41L43.74 486.58L43.52 486.74L43.3 486.91L43.09 487.07L43.43 487.32L43.76 487.58L44.1 487.86L44.44 488.16L44.77 488.47L45.11 488.8L45.44 489.14L45.78 489.49L46.12 489.85L46.46 490.21L46.79 490.59L47.13 490.97L47.47 491.36L47.82 491.75L48.5 492.54L48.85 492.94L49.2 493.34L49.55 493.73L49.91 494.13L50.26 494.51L50.62 494.9L50.98 495.28L51.35 495.65L51.71 496.01L52.09 496.36L52.46 496.7L52.84 497.03L53.22 497.35L53.61 497.65L54 497.94L54.39 498.21L54.79 498.46L55.2 498.69L55.61 498.91L56.02 499.1L56.44 499.27L56.87 499.41L57.3 499.54L57.73 499.63L58.41 499.73L59.09 499.78L59.77 499.78L60.46 499.74L61.15 499.65L61.84 499.52L62.54 499.35L63.23 499.15L63.93 498.9L64.63 498.63L65.33 498.32L66.03 497.98L66.73 497.61L67.42 497.22L68.12 496.8L68.81 496.36L69.5 495.9L70.19 495.42L70.87 494.93L71.55 494.42L72.23 493.89L72.9 493.36L73.56 492.82L74.22 492.27L74.87 491.72L75.51 491.17L76.15 490.61L76.78 490.06L77.4 489.51L78.01 488.96L78.61 488.43L79.21 487.9L79.79 487.38L80.36 486.87L80.92 486.39L81.47 485.91L82 485.46L82.52 485.03L83.03 484.62L83.53 484.23L85.86 482.44L88.19 480.61L90.53 478.75L92.86 476.85L95.2 474.93L97.55 472.99L99.9 471.03L102.25 469.04L104.61 467.05L106.98 465.04L109.35 463.03L111.73 461.01L114.12 458.99L116.52 456.98L118.93 454.97L121.34 452.97L123.77 450.98L126.21 449.01L128.67 447.06L131.13 445.13L133.61 443.22L136.1 441.35L138.61 439.5L141.13 437.69L143.67 435.93L146.23 434.2L148.8 432.52L151.39 430.88L154 429.3L156.63 427.78L159.28 426.31L161.95 424.91L164.64 423.57L167.35 422.29L170.09 421.1L172.84 419.97L175.62 418.92L178.43 417.96L181.26 417.08L184.12 416.29L186.11 415.77L188.1 415.25L190.08 414.72L192.05 414.2L194.02 413.67L195.98 413.13L197.93 412.59L199.87 412.04L201.81 411.49L203.74 410.93L205.66 410.36L207.58 409.78L209.49 409.19L211.39 408.59L213.28 407.98L215.17 407.35L217.05 406.72L218.93 406.07L220.8 405.4L222.66 404.72L224.51 404.02L226.36 403.31L228.2 402.58L230.03 401.82L231.86 401.05L233.68 400.26L235.5 399.45L237.31 398.62L239.11 397.77L240.9 396.89L242.69 395.99L244.47 395.06L246.25 394.11L248.02 393.13L249.78 392.12L251.54 391.09L253.29 390.02L255.04 388.93L256.78 387.81L258.51 386.66L258.86 386.42L259.21 386.18L259.56 385.94L259.91 385.7L260.26 385.45L260.61 385.21L260.95 384.96L261.3 384.7L261.64 384.45L261.98 384.19L262.32 383.93L262.66 383.67L262.99 383.41L263.32 383.14L263.65 382.87L263.98 382.59L264.3 382.32L264.62 382.03L264.93 381.75L265.24 381.46L265.54 381.17L265.84 380.87L266.14 380.57L266.43 380.27L266.71 379.96L266.99 379.65L267.26 379.33L267.52 379.01L267.78 378.68L268.04 378.35L268.28 378.01L268.52 377.67L268.75 377.32L268.97 376.97L269.19 376.62L269.39 376.25L269.59 375.89L269.78 375.51L269.96 375.13L270.13 374.75L270.54 373.69L270.85 372.64L271.06 371.62L271.18 370.61L271.21 369.63L271.15 368.66L271.01 367.71L270.8 366.78L270.51 365.87L270.15 364.99L269.72 364.12L269.23 363.27L268.67 362.45L268.06 361.64L267.4 360.86L266.69 360.1L265.93 359.36L265.13 358.64L264.29 357.94L263.42 357.27L262.51 356.62L261.58 356L260.62 355.39L259.65 354.82L258.65 354.26L257.64 353.73L256.62 353.22L255.6 352.74L254.57 352.29L253.54 351.85L252.52 351.45L251.51 351.07L250.5 350.71L249.52 350.38L248.55 350.08L247.6 349.81L246.68 349.56L245.79 349.34L244.93 349.14L244.11 348.98L243.16 348.81L242.2 348.65L241.24 348.53L240.27 348.42L239.31 348.33L238.34 348.27L237.38 348.22L236.41 348.2L235.45 348.19L234.49 348.21L233.52 348.25Z" id="c2KU2Ma4lq"></path><linearGradient id="gradientb33waem8DS" gradientUnits="userSpaceOnUse" x1="-36.88" y1="411.37" x2="646.1" y2="598.01"><stop style="stop-color: #1970e2;stop-opacity: 1" offset="0%"></stop><stop style="stop-color: #66d4ff;stop-opacity: 1" offset="100%"></stop></linearGradient><path d="M440.03 243.4L439.86 243.23L439.79 243.32L439.72 243.4L439.65 243.48L439.59 243.56L439.52 243.64L439.45 243.73L439.38 243.81L439.31 243.89L439.25 243.97L439.18 244.05L439.11 244.13L439.04 244.22L438.97 244.3L438.9 244.38L438.83 244.46L438.76 244.54L438.69 244.62L438.62 244.7L438.55 244.78L438.48 244.86L438.4 244.95L438.33 245.03L438.26 245.11L438.19 245.19L438.12 245.27L438.04 245.35L437.97 245.43L437.9 245.51L437.82 245.59L437.75 245.67L437.67 245.75L437.6 245.83L437.52 245.9L437.45 245.98L437.37 246.06L437.29 246.14L437.22 246.22L437.14 246.3L437.06 246.38L436.98 246.45L436.45 246.98L435.92 247.48L435.38 247.98L434.83 248.46L434.28 248.93L433.73 249.39L433.17 249.83L432.61 250.26L432.05 250.68L431.49 251.09L430.93 251.48L430.37 251.87L429.81 252.24L429.25 252.6L428.7 252.95L428.14 253.29L427.59 253.61L427.04 253.93L426.49 254.23L425.95 254.53L425.42 254.81L424.89 255.08L424.37 255.35L423.85 255.6L423.34 255.84L422.84 256.07L422.35 256.3L421.87 256.51L421.39 256.72L420.93 256.91L420.48 257.1L420.03 257.27L419.6 257.44L419.19 257.6L418.78 257.75L418.39 257.89L418.02 258.02L417.65 258.15L417.31 258.27L416.98 258.38L416.89 258.4L416.8 258.42L416.71 258.44L416.62 258.45L416.54 258.45L416.45 258.45L416.37 258.44L416.29 258.44L416.2 258.42L416.12 258.4L416.04 258.38L415.97 258.35L415.89 258.32L415.82 258.29L415.75 258.25L415.68 258.21L415.61 258.16L415.55 258.11L415.49 258.06L415.43 258L415.37 257.94L415.32 257.88L415.27 257.82L415.23 257.75L415.19 257.68L415.15 257.61L415.11 257.54L415.08 257.47L415.05 257.39L415.03 257.31L415.01 257.23L415 257.15L414.99 257.07L414.98 256.98L414.98 256.9L414.99 256.81L415 256.72L415.01 256.64L415.03 256.55L415.06 256.46L415.17 256.13L415.28 255.78L415.41 255.42L415.54 255.05L415.68 254.65L415.83 254.25L415.99 253.83L416.16 253.4L416.34 252.96L416.52 252.51L416.72 252.04L416.92 251.57L417.13 251.09L417.36 250.59L417.59 250.09L417.83 249.58L418.08 249.07L418.35 248.54L418.62 248.01L418.9 247.48L419.2 246.94L419.5 246.39L419.82 245.84L420.15 245.29L420.48 244.74L420.83 244.18L421.19 243.62L421.57 243.06L421.95 242.5L422.34 241.94L422.75 241.38L423.17 240.82L423.6 240.26L424.05 239.7L424.5 239.15L424.97 238.6L425.46 238.05L425.95 237.51L426.46 236.97L426.98 236.44L427.06 236.37L427.14 236.29L427.22 236.21L427.29 236.13L427.37 236.06L427.45 235.98L427.53 235.91L427.61 235.83L427.69 235.76L427.77 235.68L427.85 235.61L427.93 235.53L428.01 235.46L428.09 235.39L428.17 235.31L428.25 235.24L428.33 235.17L428.41 235.1L428.49 235.02L428.57 234.95L428.65 234.88L428.73 234.81L428.81 234.74L428.89 234.67L428.97 234.6L429.05 234.53L429.13 234.46L429.22 234.39L429.3 234.32L429.38 234.25L429.46 234.18L429.54 234.11L429.62 234.04L429.71 233.98L429.79 233.91L429.87 233.84L429.95 233.77L430.03 233.71L430.11 233.64L430.2 233.57L430.03 233.39L585.27 78.15L595.28 88.16L440.03 243.4ZM444.03 228.31L443.06 228.72L442.06 229.17L441.02 229.67L439.95 230.2L438.86 230.78L437.74 231.41L436.62 232.08L435.48 232.81L434.34 233.58L433.2 234.4L432.07 235.28L430.95 236.21L429.85 237.19L428.77 238.23L427.72 239.32L426.74 240.42L425.81 241.54L424.93 242.67L424.11 243.81L423.33 244.95L422.61 246.08L421.94 247.21L421.31 248.32L420.73 249.42L420.2 250.49L419.7 251.53L419.25 252.53L418.84 253.5L418.47 254.42L418.14 255.29L419.01 254.96L419.93 254.59L420.9 254.18L421.9 253.73L422.94 253.24L424.01 252.7L425.11 252.12L426.22 251.49L427.35 250.82L428.48 250.1L429.62 249.32L430.76 248.5L431.89 247.62L433.02 246.69L434.12 245.71L435.2 244.67L436.24 243.58L437.23 242.48L438.16 241.36L439.03 240.23L439.86 239.09L440.63 237.95L441.35 236.81L442.02 235.69L442.65 234.57L443.23 233.48L443.77 232.41L444.26 231.37L444.71 230.37L445.12 229.4L445.49 228.48L445.82 227.61L444.95 227.94L444.03 228.31Z" id="a2KzAnUxsQ"></path></defs><g><g><g><g><use xlink:href="#bqQkr4QG9" opacity="1" fill="url(#gradientf4NkmfXnl)"></use><g><use xlink:href="#bqQkr4QG9" opacity="1" fill-opacity="0" stroke="#000000" stroke-width="1" stroke-opacity="0"></use></g></g><g><use xlink:href="#a1SrtLDZp" opacity="1" fill="url(#gradientb2H4DV2359)"></use><g><use xlink:href="#a1SrtLDZp" opacity="1" fill-opacity="0" stroke="#000000" stroke-width="1" stroke-opacity="0"></use></g></g><g><use xlink:href="#bQqE5AyfZ" opacity="1" fill="url(#gradientaDKyxE9SX)"></use><g><use xlink:href="#bQqE5AyfZ" opacity="1" fill-opacity="0" stroke="#000000" stroke-width="1" stroke-opacity="0"></use></g></g><g><use xlink:href="#a13F5NDMr3" opacity="1" fill="url(#gradientd2nVenBF9y)"></use><g><use xlink:href="#a13F5NDMr3" opacity="1" fill-opacity="0" stroke="#000000" stroke-width="1" stroke-opacity="0"></use></g></g><g><use xlink:href="#by8utfDKs" opacity="1" fill="url(#gradientdnoJ19T8)"></use><g><use xlink:href="#by8utfDKs" opacity="1" fill-opacity="0" stroke="#000000" stroke-width="1" stroke-opacity="0"></use></g></g><g><use xlink:href="#b1WfBLxlH" opacity="1" fill="url(#gradientaoZvEI8I3)"></use><g><use xlink:href="#b1WfBLxlH" opacity="1" fill-opacity="0" stroke="#000000" stroke-width="1" stroke-opacity="0"></use></g></g><g><use xlink:href="#dPPGOqznZ" opacity="1" fill="url(#gradientb5r7IM7Tk)"></use><g><use xlink:href="#dPPGOqznZ" opacity="1" fill-opacity="0" stroke="#000000" stroke-width="1" stroke-opacity="0"></use></g></g><g><use xlink:href="#a1DAqLvRtw" opacity="1" fill="url(#gradientc1ejGT9run)"></use><g><use xlink:href="#a1DAqLvRtw" opacity="1" fill-opacity="0" stroke="#000000" stroke-width="1" stroke-opacity="0"></use></g></g><g><use xlink:href="#a20VNcjWmP" opacity="1" fill="url(#gradiente7owzCJP1l)"></use><g><use xlink:href="#a20VNcjWmP" opacity="1" fill-opacity="0" stroke="#000000" stroke-width="1" stroke-opacity="0"></use></g></g><g><use xlink:href="#a2SgTEb66" opacity="1" fill="url(#gradientg3ZLy78BiL)"></use><g><use xlink:href="#a2SgTEb66" opacity="1" fill-opacity="0" stroke="#000000" stroke-width="1" stroke-opacity="0"></use></g></g><g><use xlink:href="#b3t60rx23X" opacity="1" fill="url(#gradientd7n8C3n50U)"></use><g><use xlink:href="#b3t60rx23X" opacity="1" fill-opacity="0" stroke="#000000" stroke-width="1" stroke-opacity="0"></use></g></g><g><use xlink:href="#akGNhkrhD" opacity="1" fill="url(#gradientaYCgWhVWz)"></use><g><use xlink:href="#akGNhkrhD" opacity="1" fill-opacity="0" stroke="#000000" stroke-width="1" stroke-opacity="0"></use></g></g><g><use xlink:href="#d2ORRBqEqJ" opacity="1" fill="url(#gradientb2FujvWCg)"></use><g><use xlink:href="#d2ORRBqEqJ" opacity="1" fill-opacity="0" stroke="#000000" stroke-width="1" stroke-opacity="0"></use></g></g><g><use xlink:href="#dBmD3WqxL" opacity="1" fill="url(#gradientghb0fEM2T)"></use><g><use xlink:href="#dBmD3WqxL" opacity="1" fill-opacity="0" stroke="#000000" stroke-width="1" stroke-opacity="0"></use></g></g><g><use xlink:href="#c2KU2Ma4lq" opacity="1" fill="url(#gradientb33waem8DS)"></use><g><use xlink:href="#c2KU2Ma4lq" opacity="1" fill-opacity="0" stroke="#000000" stroke-width="1" stroke-opacity="0"></use></g></g><g><use xlink:href="#a2KzAnUxsQ" opacity="1" fill="#ffffff" fill-opacity="1"></use><g><use xlink:href="#a2KzAnUxsQ" opacity="1" fill-opacity="0" stroke="#000000" stroke-width="2" stroke-opacity="1"></use></g></g></g></g></g></svg>