<?xml version="1.0" encoding="UTF-8"?>
<svg width="70px" height="49px" viewBox="0 0 70 49" version="1.1" xmlns="http://www.w3.org/2000/svg" xmlns:xlink="http://www.w3.org/1999/xlink">
    <!-- Generator: Sketch 54.1 (76490) - https://sketchapp.com -->
    <title>CNY-Fertility</title>
    <desc>Created with Sketch.</desc>
    <g id="Symbols" stroke="none" stroke-width="1" fill="none" fill-rule="evenodd">
        <g id="Header-v2" transform="translate(-54.000000, 0.000000)">
            <g id="CNY-Fertility" transform="translate(54.000000, 0.000000)">
                <g id="Iso" transform="translate(0.000114, 0.382736)">
                    <g id="Group-6" transform="translate(6.188061, 5.279673)" fill="#00CCCD">
                        <path d="M19.086211,29.2305289 C13.366845,29.2305289 8.73048761,24.5644273 8.73048761,18.8092242 C8.73048761,13.0536383 13.366845,8.38791953 19.086211,8.38791953 C24.8055769,8.38791953 29.4419343,13.0536383 29.4419343,18.8092242 C29.4419343,24.5644273 24.8055769,29.2305289 19.086211,29.2305289 Z" id="Fill-1"></path>
                        <path d="M20.5776588,4.17265625 C26.3209902,4.17265625 31.3917683,7.06557031 34.4330939,11.4809297 C31.6276184,5.5645625 25.6286559,1.476125 18.6802063,1.476125 C9.04572795,1.476125 1.23490375,9.33603125 1.23490375,19.0315234 C1.23490375,25.4417188 4.64902478,31.0480078 9.74643112,34.1124219 C6.06831009,31.0024531 3.72997003,26.3397969 3.72997003,21.1270391 C3.72997003,11.7634453 11.2729902,4.17265625 20.5776588,4.17265625 Z" id="Fill-3"></path>
                        <path d="M23.1194006,-1.0658141e-14 C31.4742017,1.94124219 37.7025476,9.47499219 37.7025476,18.4722344 C37.7025476,28.9429219 29.2682421,37.4306406 18.8638271,37.4306406 C8.55489337,37.4306406 0.18145245,29.0975781 0.0285302594,18.7601094 C0.00989048991,19.116125 -3.12638804e-13,19.4748203 -3.12638804e-13,19.8354297 C-3.12638804e-13,30.9285703 8.93643804,39.9219844 19.9601499,39.9219844 C30.9838617,39.9219844 39.9206801,30.9285703 39.9206801,19.8354297 C39.9206801,9.82373437 32.6416599,1.52397656 23.1194006,-1.0658141e-14" id="Fill-10"></path>
                    </g>
                    <g id="Group-5" fill="#00AAB7">
                        <path d="M25.0401718,38.0055484 C20.4087597,38.0055484 16.3198029,35.6726891 13.8673418,32.11215 C16.1296012,36.8831422 20.9671919,40.1803063 26.5701545,40.1803063 C34.3391343,40.1803063 40.6374744,33.8420797 40.6374744,26.0235172 C40.6374744,20.8547828 37.8844945,16.33415 33.7742352,13.8627125 C36.7398605,16.3705172 38.6255205,20.1305016 38.6255205,24.3337828 C38.6255205,31.8843766 32.5432496,38.0055484 25.0401718,38.0055484 Z" id="Fill-5"></path>
                        <path d="M4.98975216,25.5515859 C4.98975216,13.6388437 14.5865706,3.98125 26.4247262,3.98125 C38.2628818,3.98125 47.8597003,13.6388437 47.8597003,25.5515859 C47.8597003,26.5583828 47.7897061,27.5483359 47.6569452,28.518 C47.9110548,27.10925 48.044196,25.657625 48.044196,24.1746094 C48.044196,10.8232578 37.2894294,-5.32907052e-14 24.022098,-5.32907052e-14 C10.755147,-5.32907052e-14 1.0658141e-13,10.8232578 1.0658141e-13,24.1746094 C1.0658141e-13,37.5255781 10.755147,48.3488359 24.022098,48.3488359 C30.0377983,48.3488359 35.5365303,46.1239297 39.7510202,42.4466328 C36.0922997,45.3736172 31.4616484,47.1226875 26.4247262,47.1226875 C14.5865706,47.1226875 4.98975216,37.4647109 4.98975216,25.5515859 Z" id="Fill-7"></path>
                    </g>
                </g>
            </g>
        </g>
    </g>
</svg>